<svg xmlns="http://www.w3.org/2000/svg" width="672" height="578.386" viewBox="0 0 672 578.386"><g transform="translate(-1048 -251)"><g transform="translate(1136.785 275.629)"><rect width="242.202" height="156.644" rx="7.199" fill="#e2e4e4"/><g transform="translate(0)"><path d="M318.78,84.582V95.4H76.578V84.582A10.453,10.453,0,0,1,87.033,74.127H308.325A10.453,10.453,0,0,1,318.78,84.582Z" transform="translate(-76.578 -74.127)" fill="#006891"/><g transform="translate(4.431 4.675)"><path d="M113.237,83.308a5.961,5.961,0,1,1-5.962-5.962A5.961,5.961,0,0,1,113.237,83.308Z" transform="translate(-69.821 -77.346)" fill="#00aa80"/><path d="M102.532,83.308a5.962,5.962,0,1,1-5.962-5.962A5.961,5.961,0,0,1,102.532,83.308Z" transform="translate(-74.663 -77.346)" fill="#f9872f"/><path d="M91.552,83.308a5.962,5.962,0,1,1-5.962-5.962A5.961,5.961,0,0,1,91.552,83.308Z" transform="translate(-79.629 -77.346)" fill="#eb496f"/></g></g><g transform="translate(24.898 34.433)"><rect width="70.583" height="7.827" transform="translate(63.852 18.536)" fill="#f9872f"/><path d="M246.555,110.6H192.646v7.827h53.909" transform="translate(-48.979 -92.063)" fill="#fff"/><path d="M93.722,127.9H214.74v-7.828H93.722" transform="translate(-93.722 -87.777)" fill="#006891"/><path d="M116.388,105.664H237.406V97.836H116.388" transform="translate(-83.47 -97.836)" fill="#006891"/><rect width="29.415" height="7.828" transform="translate(130.508 32.3)" fill="#f9872f"/><path d="M238.617,120.077H210.2V127.9h28.422" transform="translate(-41.042 -87.777)" fill="#fff"/><path d="M240.539,97.836H205.945v7.827h34.594" transform="translate(-42.964 -97.836)" fill="#fff"/><path d="M93.722,137.382h63.852v-7.828H93.722" transform="translate(-93.722 -83.49)" fill="#006891"/><rect width="86.581" height="7.828" transform="translate(73.341 46.064)" fill="#f9872f"/><path d="M110.7,146.859h39.2v-7.827H110.7" transform="translate(-86.044 -79.204)" fill="#f9872f"/><path d="M268.537,139.032H144.045v7.827H268.537" transform="translate(-70.961 -79.204)" fill="#fff"/><path d="M93.722,156.337h54.363v-7.827H93.722" transform="translate(-93.722 -74.917)" fill="#006891"/><rect width="96.07" height="7.827" transform="translate(63.852 73.592)" fill="#f9872f"/><path d="M238.617,148.509H210.2v7.827h28.422" transform="translate(-41.042 -74.917)" fill="#fff"/><path d="M93.722,165.814h91.033v-7.827H93.722" transform="translate(-93.722 -70.63)" fill="#006891"/><rect width="33.912" height="7.827" transform="translate(100.523 87.356)" fill="#f9872f"/><path d="M246.555,157.986H192.646v7.827h53.909" transform="translate(-48.979 -70.63)" fill="#fff"/><rect width="120.102" height="7.828" transform="translate(39.82 101.12)" fill="#f9872f"/><path d="M238.617,167.464H210.2v7.828h28.422" transform="translate(-41.042 -66.344)" fill="#fff"/></g><text transform="translate(24.899 44.284)" fill="#1d3877" font-size="16" font-family="Montserrat-ExtraBold, Montserrat" font-weight="800"><tspan x="0" y="0">&lt;/&gt;</tspan></text></g><g transform="translate(1103.652 396.301)"><g transform="translate(0 0)"><g transform="translate(0 130.465)"><path d="M94.807,283.358q.078.632.109,1.245v.058c.27,5.893-2.9,10.382-13.233,8.535a6.312,6.312,0,0,1-3.275-1.815l0,0a55.309,55.309,0,0,1-9.335-12.475c-2.077-4.079-1.567-6.029-1.653-6.287A10.387,10.387,0,0,0,65.6,270.5a5.085,5.085,0,0,0-1.871-.818,4.744,4.744,0,0,0,.648,3.17c.992,1.955-2.133,4.9-4.4-.11-1.885-4.17-1.282-6.859.876-7.751a15.524,15.524,0,0,0-1.643.01c-7.516.46-7.206-5.767.6-5.764.861,0,1.749.036,2.648.1a3.093,3.093,0,0,1-.144-.44,14.1,14.1,0,0,0-1.471-.2c-7.632-.613-5.678-6.81,1.75-5.517a37.007,37.007,0,0,1,6.258,1.721,20.4,20.4,0,0,0-2.4-1.535c-5.525-2.969-3.4-8.178,2.055-5.642s13.182,8.763,17.163,13.855C89.429,266.38,93.978,276.226,94.807,283.358Z" transform="translate(-53.764 -247.051)" fill="#efb3a6"/><path d="M71.62,261.7c-.012-.027-1.36-2.99-6.74-7.765l.956-1.077c5.663,5.027,7.05,8.141,7.106,8.271Z" transform="translate(-48.52 -244.181)" fill="#d17a80"/><path d="M63.745,264.265a7.377,7.377,0,0,0-3.776-2.75l.258-1.417a8.57,8.57,0,0,1,4.642,3.266Z" transform="translate(-50.899 -240.829)" fill="#d17a80"/><g transform="translate(8.507 9.377)"><path d="M68.74,273.266a25.694,25.694,0,0,1-1.882-4.774,13.847,13.847,0,0,0-1.6-3.822c-.623-.888-1.517-1.923-2.463-3.019-2.386-2.764-4.447-5.151-3.76-6.731a3.227,3.227,0,0,1,2.185-2.054c2.07-.489,4.653,1.37,7.136,3.45a34.576,34.576,0,0,0,6.421,4.249c2.455,1.217,4.367,1.62,5.384,1.136l.619,1.3c-3.372,1.6-10.206-2.95-13.348-5.582-1.815-1.521-4.4-3.5-5.88-3.153a1.861,1.861,0,0,0-1.2,1.226c-.018.042-.151.451.8,1.845a42.261,42.261,0,0,0,2.727,3.371c.97,1.124,1.887,2.186,2.551,3.133a15.061,15.061,0,0,1,1.793,4.218,24.177,24.177,0,0,0,1.774,4.517Z" transform="translate(-59.622 -253.508)" fill="#d17a80"/></g></g><g transform="translate(27.167)"><path d="M185.411,271.561l-.01.01c-1.059,3.122-2.374,6.543-4.02,10.23a157.686,157.686,0,0,1-18.152,30.414c-3.281,4.35-6.938,8.83-11.052,13.437l-.588.652q-2.839,3.126-5.965,6.339a22.967,22.967,0,0,1-5.773,4.393l-17.873-20.984s1.111-2.106,2.993-5.623c.545-1.025,1.165-2.17,1.839-3.42.834-1.55,1.763-3.25,2.746-5.077.257-.481.514-.973.792-1.465.63-1.187,1.294-2.415,1.978-3.687,10.252-18.857,25.25-45.785,31.171-53.054.012-.022.033-.032.044-.044.642-.588,1.262-1.133,1.849-1.645l10.006,3.87,5.388,2.084c.5.738,1.005,1.539,1.486,2.361A88.491,88.491,0,0,1,185.411,271.561Z" transform="translate(-50.078 -118.855)" fill="#edb1a4"/><path d="M172.5,313.314a29.213,29.213,0,0,1-4.479,6.169,22.967,22.967,0,0,1-5.773,4.393c-30.285,16.174-89.774-41.809-89.774-41.809L81.9,271.132l67.3,22.717,3.089,1.047Z" transform="translate(-72.47 -105.695)" fill="#edb1a4"/><path d="M291.429,385.506l-130.351,2.106L151.969,254.7c-.866-6.116.353-9.59,6.1-11.845a145.345,145.345,0,0,1,21.209-6.842c1.9-.427,3.87-.834,5.911-1.187a95.888,95.888,0,0,1,16.441-1.454l17.969-1.24s6.339.129,14.9.931c3.432.309,7.237.726,11.139,1.294,3.976.577,8.049,1.293,11.941,2.2a16.29,16.29,0,0,1,12.358,18.428Z" transform="translate(-36.626 -123.336)" fill="#1d3877"/><path d="M237.181,234.353c-68.319,40.118-67.87,10.8-66.363,1.656,1.9-.427,3.87-.834,5.911-1.187a95.888,95.888,0,0,1,16.441-1.454l17.969-1.24s6.339.129,14.9.931C229.473,233.368,233.279,233.785,237.181,234.353Z" transform="translate(-28.162 -123.336)" fill="#006891"/><path d="M224.277,233.059c-59.286,36.12-49.313,1.763-49.313,1.763a95.888,95.888,0,0,1,16.441-1.454l17.969-1.24S215.715,232.257,224.277,233.059Z" transform="translate(-26.398 -123.336)" fill="#efb3a6"/><g transform="translate(106.534)"><path d="M159.653,203.823s-10.65.155-9.585-8.7,10.782-9.006,10.782-9.006Z" transform="translate(-143.94 -144.146)" fill="#33324f"/><path d="M230.785,190.457a13.557,13.557,0,0,0-10.584-3.538c-1.7-13.624-22.769-14.6-33.513-13.275.073-.212.138-.42.218-.642a1.224,1.224,0,0,0,.147-.36c.825-3.657,1.33-8.618-1.012-11.87-2.067-2.867-5.965-3.892-9.229-3.459-7.155.951-9.948,7.272-10.7,13.766-3.645-4.126-11.646-4.549-14.991.558-4.608,7.036.29,13.313,4.382,18.931-3.928.559-11.088,2.967-9.431,7.906,1.876,5.6,11.78,3.329,15.8,2.315a1.038,1.038,0,0,0,.363-.17,1.084,1.084,0,0,0,1.4-1.415c-1.595-3.869,15.307-5.1,17.545-5.281,5.841-.484,11.717-1.008,17.579-1.168,5.638-.152,10.99.585,14.485,5.731,3.435,5.055,6.008,10.968,8.859,16.391.02.039.045.068.067.1a33.249,33.249,0,0,1-1.2,12.061c-.3,1.053.957,1.628,1.712,1.188,9.319-5.44,13.027-14.044,12.307-24.95C234.682,198.555,234.344,193.852,230.785,190.457Z" transform="translate(-145.826 -157.217)" fill="#33324f"/><g transform="translate(45.557 85.766)"><path d="M210.248,243.845c-22.576,5.972-35.755,11.151-32.587,2.255l.694-3.446.177-.895,1.936-9.627,1.868-9.245.912-4.486,24.078-2.128,1.288,12.125.532,5Z" transform="translate(-177.194 -216.273)" fill="#efb3a6"/><path d="M208.784,232.738c-3.024,1.191-25.038,9.774-30.79,9.26l.177-.895,1.936-9.627,27.066-13.752Z" transform="translate(-176.833 -215.617)" fill="#d17a80"/></g><g transform="translate(14.68 19.419)"><path d="M156.08,211.428c.062.932.125,1.846.208,2.8.041.581.1,1.162.166,1.743a81.96,81.96,0,0,0,1.7,10.25,54.1,54.1,0,0,0,3.34,9.979,37.216,37.216,0,0,0,3.528,6.182c8.216,11.681,20.229,12.946,28.195,12.2,9.192-.851,23.2-5.353,27.761-23.963a63.92,63.92,0,0,0,1.2-20.788c-.062-.873-.145-1.722-.248-2.573-.083-.932-.208-1.847-.333-2.738-2.822-20.458-12.177-35.956-36.225-33.715C161.038,173.087,154.855,190.473,156.08,211.428Z" transform="translate(-155.933 -170.589)" fill="#edb1a4"/></g><g transform="translate(12.197 18.82)"><path d="M190.714,186.118s-2.8,24.211,5.074,29.422c0,0,8.6,5.742,10.416-17.181Z" transform="translate(-137.939 -162.965)" fill="#33324f"/><path d="M209.795,202.768s-14.065,2.727-15.267-8.988c0,0-8.415,8.4-17.539.333,0,0-1.855,7.442-13.3,5.8,0,0,2.565,9.845-6.869,11.08l-2.6-5.267,1.356-11.588,3.356-7.914,8.108-10.095,8.593-4.138,10.9-1.817h9.09l10.892,2.422,7.988,7.367,6.575,8.682,1.828,16.857-1.769,1.451Z" transform="translate(-154.224 -170.176)" fill="#33324f"/></g><g transform="translate(70.833 54.14)"><path d="M194.611,205.455a26.419,26.419,0,0,0,1.011,6.3c.24.911.505,1.782.758,2.592a.036.036,0,0,1,.013.025c.038.126.076.24.113.366a1.838,1.838,0,0,0,.266.543,1.7,1.7,0,0,0,.556.569c1.921,2.364,5.374,2.921,8.445,1.782a8.971,8.971,0,0,0,2.693-1.541,14.345,14.345,0,0,0,5.183-8.332,12.768,12.768,0,0,0-1.163-8.04,11.007,11.007,0,0,0-1.706-2.566,7.8,7.8,0,0,0-2.87-2.061,6.849,6.849,0,0,0-1.871-.518,11.148,11.148,0,0,0-7.687,2.225,8.114,8.114,0,0,0-2.161,2.149A10.693,10.693,0,0,0,194.611,205.455Z" transform="translate(-194.599 -194.496)" fill="#efb3a6"/><path d="M198.622,211.1a23.911,23.911,0,0,1-.827-4.344c-.3-3.261.261-5.62,1.673-7.011,1.564-1.541,4.05-1.776,7.388-.7l-.456,1.412c-2.77-.895-4.751-.779-5.89.343-1.345,1.325-1.415,3.895-1.237,5.817a22.7,22.7,0,0,0,.768,4.045Z" transform="translate(-192.853 -192.405)" fill="#d17a80"/><path d="M.306,3-.306,1.653,4.829-.676,5.442.676Z" transform="translate(5.65 11.557)" fill="#d17a80"/></g><g transform="translate(6.054 55.279)"><g transform="translate(12.131 0.883)"><g transform="translate(10.842 10.553)"><path d="M165.884,220.1l-.195-1.47a6.831,6.831,0,0,0,4.641-2.868c3.128-4.465,1.713-12.393,1.7-12.473l1.459-.27a27.324,27.324,0,0,1,.358,4.868c-.05,3.682-.823,6.616-2.3,8.723a8.5,8.5,0,0,1-1.428,1.586l7.49-.73.144,1.477Z" transform="translate(-165.812 -203.156)" fill="#d17a80"/><g transform="translate(8.656 14.488)"><g transform="translate(6.277 10.955)" opacity="0.5"><path d="M184.055,221.419c1.294,1.94-6.939,4.286-7.88,2.385S182.718,219.41,184.055,221.419Z" transform="translate(-176.094 -220.675)" fill="#d17a80"/></g><path d="M174.428,222.18q-1.343,0-2.728-.135l.144-1.477c6.236.609,14.513-1.049,17.318-7.724l1.368.575a13.49,13.49,0,0,1-7.619,7.2A22.421,22.421,0,0,1,174.428,222.18Z" transform="translate(-171.772 -213.132)" fill="#d17a80"/></g></g><g transform="translate(3.879 4.669)"><g transform="translate(0 2.629)"><path d="M161.049,205.211c.225,2.213,1.641,3.882,3.163,3.727s2.571-2.075,2.345-4.287-1.643-3.882-3.163-3.727S160.822,203,161.049,205.211Z" transform="translate(-161.018 -200.914)" fill="#33324f"/></g><g transform="translate(25.768)"><path d="M178.792,203.4c.225,2.213,1.641,3.882,3.163,3.727s2.571-2.075,2.345-4.289-1.643-3.881-3.163-3.725S178.565,201.188,178.792,203.4Z" transform="translate(-178.761 -199.104)" fill="#33324f"/></g></g><path d="M178.4,199.5c8.024.446,12.549-1.781,5.632-2.733S174.242,199.273,178.4,199.5Z" transform="translate(-150.149 -195.566)" fill="#33324f"/><path d="M167.19,198.159c-7.1,3.77-12.14,3.647-6.259-.119S170.869,196.205,167.19,198.159Z" transform="translate(-158.347 -195.889)" fill="#33324f"/></g><path d="M202.04,200.913a11.992,11.992,0,0,0-4.952-4.454,7.277,7.277,0,0,0-.726-.317,11.458,11.458,0,0,0-3.709-.835c-.237-.017-.472-.026-.709-.026a11.816,11.816,0,0,0-4.435.861,11.989,11.989,0,0,0-5.66,4.771,11.778,11.778,0,0,0-1.688,4.807H173.64a11.779,11.779,0,0,0-1.688-4.807,11.962,11.962,0,0,0-5.668-4.771,11.8,11.8,0,0,0-4.427-.861,11.566,11.566,0,0,0-4.427.861,11.814,11.814,0,0,0-5.061,3.891,8.372,8.372,0,0,0-.59.88,11.646,11.646,0,0,0-1.769,5.606c-.009.209-.017.417-.017.626a12.415,12.415,0,0,0,.171,2.023,12.136,12.136,0,0,0,1.243,3.591v.009a12.2,12.2,0,0,0,.735,1.179,11.959,11.959,0,0,0,6.758,4.689,11.706,11.706,0,0,0,2.6.363c.118.009.237.009.354.009a11.973,11.973,0,0,0,9.768-5.061,11.144,11.144,0,0,0,1.743-3.692,10.737,10.737,0,0,0,.353-2.722h6.358a9.69,9.69,0,0,0,.137,1.634,8.35,8.35,0,0,0,.227,1.088,11.3,11.3,0,0,0,1.733,3.692,11.977,11.977,0,0,0,9.768,5.061,5.525,5.525,0,0,0,.564-.019,11.576,11.576,0,0,0,4.525-1.133h.009a11.873,11.873,0,0,0,4.055-3.175c.2-.237.382-.481.562-.735a11.8,11.8,0,0,0,1.969-4.779,11.517,11.517,0,0,0,.182-2.023A11.86,11.86,0,0,0,202.04,200.913Zm-30.2,9.343a10.486,10.486,0,0,1-9.986,7.347H161.6a10.444,10.444,0,0,1-7.683-3.655,10.314,10.314,0,0,1-2.322-4.779,9.9,9.9,0,0,1-.2-2.023,10.458,10.458,0,1,1,20.916,0,9.33,9.33,0,0,1-.209,2.023A8.424,8.424,0,0,1,171.844,210.256Zm28.037,3.692a10.439,10.439,0,0,1-7.474,3.647c-.154.009-.308.009-.463.009a10.492,10.492,0,0,1-9.986-7.347,8.667,8.667,0,0,1-.263-1.088,9.331,9.331,0,0,1-.209-2.023,10.463,10.463,0,0,1,20.926,0,9.907,9.907,0,0,1-.2,2.023A10.4,10.4,0,0,1,199.88,213.947Z" transform="translate(-149.994 -195.281)" fill="#fff"/></g></g><g transform="translate(106.513 114.022)"><path d="M250.022,250.982l0,.01c3.937,10.441,7.816,25.48,8.711,45.466.248,5.693.267,11.777-.028,18.279q-.351,7.585-1.288,15.917l-.219-.041-27.867-4.97s-.482-2.334-1.266-6.236c-.5-2.559-1.146-5.8-1.866-9.481-.367-1.81-.742-3.734-1.133-5.744-4.579-23.659-10.994-58.972-9.415-63.216l15.811-5.238c.858.25,1.75.543,2.649.88A87.614,87.614,0,0,1,250.022,250.982Z" transform="translate(-114.331 -235.729)" fill="#edb1a4"/><path d="M248.3,292.879l-71.016,21.829-1.268,14.378s105.239,15.779,99.436-33.054Z" transform="translate(-132.148 -209.88)" fill="#edb1a4"/><g transform="translate(0 95.252)"><path d="M168.738,322.765a34.563,34.563,0,0,0-10.211,1.949c-4.894,1.856-4.941-3.369-.558-5.042a19.386,19.386,0,0,0-5.652,1.741A2.4,2.4,0,0,1,149.3,317.7a2.619,2.619,0,0,1-3.208-1.2c-1.066-1.993,1.144-4.027,2-4.611,0,0-3.973-3.483,4.491-7.187s19.74-5.737,33.873,1.311c9.723,4.848,10.33,12.469,8.043,16.43C190.343,329.63,177.443,330.79,168.738,322.765Z" transform="translate(-145.811 -301.316)" fill="#efb3a6"/><path d="M154.432,315.387l-.5-1.351c7.412-2.732,10.954-2.475,11.1-2.463l-.12,1.435C164.884,313.006,161.489,312.786,154.432,315.387Z" transform="translate(-142.024 -296.356)" fill="#d17a80"/><path d="M148.535,314.842l-.638-1.291c11.323-5.6,17.191-5.219,17.436-5.2l-.11,1.436a17.457,17.457,0,0,0-4.2.482A53.186,53.186,0,0,0,148.535,314.842Z" transform="translate(-144.723 -297.813)" fill="#d17a80"/><path d="M147.768,310.755l-.774-1.214a34.706,34.706,0,0,1,11.22-4.282,41.524,41.524,0,0,1,5.8-.823l.074,1.438a40.956,40.956,0,0,0-5.6.8A33.247,33.247,0,0,0,147.768,310.755Z" transform="translate(-145.101 -299.58)" fill="#d17a80"/></g></g><path d="M271.2,315.689l-10.68-.478-39.364-1.057.042-1.919L211.4,238.587l7.951-3.69a34.282,34.282,0,0,1,13.922,1.307c.858.25,1.75.543,2.649.88C250.925,242.664,270.762,259.576,271.2,315.689Z" transform="translate(-9.63 -122.182)" fill="#1d3877"/><path d="M168.165,240.1s-26.741,13.88-42.83,59.582l33.23,31.091,18.335-22.8Z" transform="translate(-48.559 -119.731)" fill="#1d3877"/><path d="M.215,3.711l-.43-1.374L9.443-.687,9.873.687Z" transform="translate(214.025 196.653)" fill="#d17a80"/><path d="M13.2,5.238-.231.682.231-.682,13.66,3.874Z" transform="translate(68.092 185.238)" fill="#d17a80"/><g transform="translate(115.843 152.223)"><path d="M154.961,308.5c0-.08-.477-8.127-.711-17.831-.216-8.963-.268-21.215.713-28.681l.736.1c-.975,7.419-.923,19.629-.707,28.566.234,9.691.7,17.725.71,17.805Z" transform="translate(-151.216 -262.033)" fill="#005467"/><path d="M3.362,7.466-.331.167.331-.167l3.693,7.3Z" transform="translate(0 3.386)" fill="#005467"/></g><g transform="translate(202.528 144.721)"><path d="M227.609,304.695l-5.438-.146-8.538-47.616.73-.131,8.432,47.021,4.834.13Z" transform="translate(-210.986 -256.867)" fill="#005467"/><path d="M4.045,4.553-.262.263.262-.263l4.307,4.29Z" transform="translate(0 2.931)" fill="#005467"/></g></g></g><g transform="translate(290.433 28.095)"><g transform="translate(12.121)"><path d="M319.347,198.968s-20.517,6.8-14.62,25.735c0,0-15.723-1.892-19.982,18.841,0,0-23.911-.908-22.6,23.671s28.575,11.851,28.575,11.851,6.955,22.089,25.713,11.184c0,0,11.636,15.818,24.532,0Z" transform="translate(-262.092 -166.429)" fill="#33324f"/><path d="M356.791,204.289s17.175,13.12,5.421,29.1c0,0,15.48,3.342,12.738,24.33,0,0,22.9,6.945,13.64,29.75s-30.879,1.875-30.879,1.875-13.782,18.611-27.955,2.183c0,0-16.161,11.154-23.189-8.006Z" transform="translate(-241.976 -164.022)" fill="#33324f"/><path d="M368.93,219.364c-.219,1.285-.489,2.6-.807,3.966a96.441,96.441,0,0,1-3.07,10.387,2.162,2.162,0,0,1-.09.229c-.5,1.4-1.037,2.849-1.625,4.325a4.665,4.665,0,0,1-4.136,2.98l-47.444,1.674c-3.648.129-5.861-4.066-7.116-7.545-4.964-13.775-14.484-46.078,19.207-57.043a36.053,36.053,0,0,1,18.229-1.076C354.667,179.793,374.382,188.624,368.93,219.364Z" transform="translate(-245.169 -176.563)" fill="#33324f"/></g><g transform="translate(112.121 110.331)"><path d="M339.057,302.773a27.145,27.145,0,0,0-.536,7.087,21.4,21.4,0,0,0,1.454,6.605c11.775,29.768,89.047,24.428,89.047,24.428l-.107-13.463L367.36,302.984l-2.829-1.12Z" transform="translate(-327.546 -230.221)" fill="#e8776e"/><path d="M369.066,332.573,345.988,343.9a21.681,21.681,0,0,1-3.31-5.9c-.992-2.6-1.9-5.15-2.752-7.638-.077-.257-.174-.524-.261-.78-1.812-5.464-3.278-10.657-4.466-15.587a147.061,147.061,0,0,1-4.241-32.754c-.048-3.769.1-7.183.354-10.242l-.01-.009A82.706,82.706,0,0,1,341.863,254c.713-.518,1.447-1.018,2.151-1.468l.78.029,4.6.186,7.558.3q1.394,1.68,2.841,3.788c.479.7.958,1.438,1.439,2.222,2.168,11.255,4.562,35.6,6.133,53.19.109,1.343.216,2.637.321,3.891.055.517.09,1.034.135,1.541s.087.985.122,1.462c.129,1.383.235,2.685.34,3.9.109,1.323.222,2.526.3,3.61C368.893,330.364,369.066,332.573,369.066,332.573Z" transform="translate(-330.949 -252.533)" fill="#e8776e"/><path d="M7.36,3.565-.248.646l.5-1.292L7.856,2.273Z" transform="translate(34.691 70.83)" fill="#924541"/><g transform="translate(92.867 84.505)"><path d="M398.32,321.48c-.29.267-.568.54-.828.818l-.019.02-.017.019c-3.747,4.029-4.2,9.133,4.26,14.052a5.891,5.891,0,0,0,3.423.685v0a51.514,51.514,0,0,0,14.161-3.239c3.939-1.648,4.752-3.34,4.968-3.472a9.659,9.659,0,0,1,2.572-.411,4.74,4.74,0,0,1,1.823.548,4.429,4.429,0,0,1-2.373,1.863c-1.884.79-1.436,4.766,3.192,2.573,3.856-1.828,5.05-4.1,4.053-6.04a14.641,14.641,0,0,1,1.162,1c5.066,4.862,8.6.247,3.05-4.46-.613-.52-1.265-1.03-1.945-1.525a2.859,2.859,0,0,0,.367-.227,13.322,13.322,0,0,1,1.168.745c5.8,4.168,8.146-1.416,2.084-4.978a34.44,34.44,0,0,0-5.487-2.55,19.005,19.005,0,0,1,2.63.354c5.718,1.221,7.35-3.764,1.943-5.251s-14.659-1.721-20.562-.5C412.385,312.65,403.211,316.908,398.32,321.48Z" transform="translate(-394.894 -310.72)" fill="#e8776e"/><path d="M413.941,317.064l-.611-1.241c.119-.059,2.985-1.438,10.049-1.6l.031,1.383C416.711,315.76,413.968,317.051,413.941,317.064Z" transform="translate(-386.416 -308.822)" fill="#924541"/><path transform="translate(-385.205 -305.187)" fill="#924541"/><g transform="translate(22.643 4.948)"><path d="M412.251,328.984l-.5-1.29a22.531,22.531,0,0,0,3.985-2.142,14.067,14.067,0,0,1,3.822-1.92c1.045-.273,2.339-.475,3.709-.689a39.375,39.375,0,0,0,3.969-.751c1.507-.413,1.656-.773,1.668-.813a1.718,1.718,0,0,0-.107-1.576c-.837-1.135-3.863-1.284-6.067-1.3-3.826-.023-11.442-.909-12.877-4.1l1.262-.568c.429.952,2.027,1.814,4.5,2.428a32.2,32.2,0,0,0,7.124.851c3.026.018,5.989.257,7.172,1.86a3.029,3.029,0,0,1,.318,2.8c-.469,1.549-3.379,2-6.748,2.53-1.334.208-2.595.405-3.573.661a12.907,12.907,0,0,0-3.433,1.751A23.98,23.98,0,0,1,412.251,328.984Z" transform="translate(-410.485 -314.127)" fill="#924541"/></g></g></g><path d="M392.752,258.881a6.344,6.344,0,0,1-.06,1.226l-4.565,66.652L384.2,384.04,262.66,382.076l20.034-121.7a15.189,15.189,0,0,1,11.523-17.184c3.628-.847,7.426-1.515,11.133-2.052.9-.131,1.794-.25,2.671-.369,1.863-.24,3.679-.439,5.413-.619.787-.08,1.554-.15,2.3-.219.539-.049,1.076-.1,1.595-.139,7.167-.627,12.3-.728,12.3-.728l16.755,1.156a88.144,88.144,0,0,1,9.639.539c.229.019.459.049.687.08.15.019.289.029.43.049.408.06.806.109,1.205.16,1.146.16,2.263.338,3.369.529q1.54.268,3.019.568l.01.01c.838.168,1.664.349,2.482.527,2.81.639,5.442,1.367,7.864,2.113,1.166.359,1.914.578,2.422.717a.358.358,0,0,1,.089.02c.439.131.688.189.869.24a1.456,1.456,0,0,1,.15.039,6.859,6.859,0,0,1,.736.279c.051.02.11.051.16.071C382.258,247.33,387.37,250.488,392.752,258.881Z" transform="translate(-249.714 -148.293)" fill="#f9872f"/><g transform="translate(58.307 90.773)"><g transform="translate(0 0.728)"><path d="M324.95,254.8l3.488-14.333c.109.031.119-.049.1-.179.15.019.289.029.43.049.408.06.806.109,1.205.16,1.146.16,2.263.338,3.369.529q1.54.268,3.019.568l.01.01c.838.168,1.664.349,2.482.527C355.548,262.844,324.95,254.8,324.95,254.8Z" transform="translate(-279.848 -239.241)" fill="#fff"/><path d="M339.874,253.9a18.076,18.076,0,0,1-1.067,1.775c-4,5.979-19.207,22.984-44.912-15.13,1.863-.24,3.679-.439,5.413-.619.787-.08,1.554-.15,2.3-.219.539-.049,1.076-.1,1.595-.139l35.734,13.964Z" transform="translate(-293.894 -239.567)" fill="#fff"/></g><path d="M297.621,240.152c.787-.08,1.554-.15,2.3-.219,7.983-.748,13.894-.867,13.894-.867l16.755,1.156a88.144,88.144,0,0,1,9.639.539c.767.119,1.535.238,2.283.369C342.494,241.13,351.664,272.735,297.621,240.152Z" transform="translate(-292.208 -239.066)" fill="#e8776e"/></g><g transform="translate(97.549 77.114)" opacity="0.5"><path d="M321.043,230.354c-1.205,1.81,6.471,4,7.347,2.223S322.29,228.482,321.043,230.354Z" transform="translate(-320.915 -229.661)" fill="#924541"/></g><g transform="translate(127.739 97.212)"><path d="M373.746,313.19s-4.743,3.061-10.385,6.2a93.741,93.741,0,0,1-10.984,5.363c-2.89,1.105-5.313,1.654-6.6,1.126l-3.648-73.707L341.7,243.5a.324.324,0,0,1,.06.009.358.358,0,0,1,.089.02,6.26,6.26,0,0,1,.869.24,1.457,1.457,0,0,1,.15.039c.218.08.457.17.736.279.051.02.11.051.16.071,2.273.966,6.171,3.3,10.506,8.85.9,1.146,1.8,2.433,2.73,3.867.459.717.918,1.465,1.377,2.263C364.288,269.265,370.319,285.89,373.746,313.19Z" transform="translate(-341.703 -243.5)" fill="#f9872f"/></g><g transform="translate(133.165 128.99)"><path d="M351.232,314.954l-1.089-.195c2.08-11.639.549-24.395-1.1-33.046a128.064,128.064,0,0,0-4.125-16.15l1.045-.363a129.317,129.317,0,0,1,4.166,16.306,119.756,119.756,0,0,1,2,16.018A76.7,76.7,0,0,1,351.232,314.954Z" transform="translate(-345.439 -265.381)" fill="#ec9e05"/><path d="M.5,5.116l-1-.472L1.8-.236l1,.472Z" transform="translate(1.922 1.605)" fill="#ec9e05"/></g><g transform="translate(12.63 98.756)"><path d="M283.959,246.537c.07-.06.139-.109.209-.16.5-.367.967-.7,1.416-1,.837-.309,1.664-.588,2.462-.818l14.751,4.884c1.465,3.958-4.515,36.88-8.781,58.947-.369,1.873-.717,3.667-1.057,5.352-.607,3.08-1.146,5.811-1.595,8.065-.049.269-.1.527-.15.777-.728,3.638-1.176,5.811-1.176,5.811l-25.984,4.634-.209.041q-.569-5.023-.9-9.768c-.119-1.724-.219-3.409-.3-5.073-.28-6.06-.26-11.732-.031-17.044a140.377,140.377,0,0,1,6.956-39.112Z" transform="translate(-262.443 -244.563)" fill="#e8776e"/><path d="M289.457,298.021l63.1,28.587-.527,13.448s-99.2,2.147-88.057-42.331Z" transform="translate(-262.147 -220.518)" fill="#e8776e"/><g transform="translate(85.179 99.684)"><path d="M345.462,333.216a32.211,32.211,0,0,1,9.213,3.011c4.309,2.295,4.97-2.531,1.112-4.6a18.088,18.088,0,0,1,5.022,2.28,2.242,2.242,0,0,0,3.227-3.079,2.443,2.443,0,0,0,3.109-.733c1.22-1.717-.582-3.86-1.3-4.5,0,0,4.088-2.751-3.3-7.177s-17.579-7.641-31.483-2.794c-9.566,3.334-11.03,10.311-9.383,14.244C324.67,337.011,336.462,339.61,345.462,333.216Z" transform="translate(-321.094 -313.202)" fill="#e8776e"/><path d="M347.683,327.6c-6.213-3.237-9.378-3.435-9.409-3.437l.063-1.382c.138.006,3.45.187,9.985,3.592Z" transform="translate(-313.309 -308.558)" fill="#924541"/><path d="M355.006,328.022c-9.5-6.309-14.774-6.643-14.826-6.646l.07-1.382c.228.012,5.705.358,15.521,6.875Z" transform="translate(-312.446 -309.818)" fill="#924541"/><path d="M356.081,324.318c-5.789-4.823-14.416-6.423-14.5-6.438l.246-1.362a38.753,38.753,0,0,1,5.266,1.447,32.387,32.387,0,0,1,9.876,5.29Z" transform="translate(-311.773 -311.394)" fill="#924541"/></g><path d="M7.291,4.084-.287.629.287-.629,7.865,2.826Z" transform="translate(24.285 76.11)" fill="#924541"/></g><path d="M297.308,242.083S262,251.722,253.746,319.617c0,0,31.637,3.04,47.227-2.036l11.084-68.229Z" transform="translate(-253.746 -146.928)" fill="#f9872f"/><g transform="translate(42.366 130.85)"><path d="M283.055,308.24l-.273-1.072,4.473-1.141,2.744-39.4,1.1.077-2.8,40.2Z" transform="translate(-282.918 -266.662)" fill="#ec9e05"/><path d="M.408,5.034l-.816-.748L3.866-.374l.816.748Z" transform="translate(7.062 3.522)" fill="#ec9e05"/></g><g transform="translate(62.085 7.696)"><g transform="translate(10.707 62.839)"><path d="M303.868,250.84c21.049,5.568,33.339,10.4,30.383,2.1l-.648-3.212-.166-.835-1.805-8.977-1.74-8.621-.853-4.181-22.45-1.985-1.2,11.306-.5,4.658Z" transform="translate(-303.868 -225.131)" fill="#e8776e"/><path d="M304.575,240.483c2.82,1.111,23.346,9.113,28.709,8.635l-.166-.835-1.805-8.977-25.235-12.822Z" transform="translate(-303.548 -224.519)" fill="#924541" opacity="0.5"/></g><g transform="translate(8.254 0.978)"><path d="M364.1,220.614c-.058.87-.116,1.721-.193,2.61-.039.543-.1,1.083-.155,1.627a76.287,76.287,0,0,1-1.586,9.556,50.334,50.334,0,0,1-3.115,9.3,34.634,34.634,0,0,1-3.288,5.764c-7.661,10.891-18.861,12.07-26.289,11.374-8.57-.793-21.628-4.992-25.883-22.342a59.576,59.576,0,0,1-1.123-19.384c.058-.813.135-1.606.232-2.4.077-.87.193-1.722.309-2.553,2.632-19.074,11.356-33.525,33.776-31.435C359.481,184.864,365.246,201.075,364.1,220.614Z" transform="translate(-302.179 -182.535)" fill="#e8776e"/></g><path d="M339.08,228.7l-11.066-1.079.134-1.377,6.983.681a7.924,7.924,0,0,1-1.332-1.479,14.408,14.408,0,0,1-2.142-8.134,25.479,25.479,0,0,1,.334-4.539l1.36.252c-.014.074-1.333,7.467,1.584,11.63a6.369,6.369,0,0,0,4.327,2.674Z" transform="translate(-282.21 -167.823)" fill="#924541"/><g transform="translate(34.211 39.59)"><g transform="translate(24.027 2.451)"><path d="M341.762,214.818c-.211,2.064-1.532,3.619-2.95,3.474s-2.4-1.934-2.187-4,1.531-3.619,2.95-3.474S341.972,212.754,341.762,214.818Z" transform="translate(-336.596 -210.811)" fill="#33324f"/></g><path d="M325.218,213.13c-.211,2.064-1.531,3.619-2.95,3.475s-2.4-1.936-2.187-4,1.531-3.619,2.95-3.474S325.428,211.066,325.218,213.13Z" transform="translate(-320.052 -209.123)" fill="#33324f"/></g><g transform="translate(30.701 29.665)"><g transform="translate(27.549 3.632)"><path d="M336.854,205.728c-1.812,2.459,6.811,5.439,8.226,3.031S338.727,203.187,336.854,205.728Z" transform="translate(-336.604 -204.79)" fill="#33324f"/></g><path d="M326.363,203.8c1.3,2.761-7.731,4.026-8.656,1.39S325.013,200.943,326.363,203.8Z" transform="translate(-317.635 -202.289)" fill="#33324f"/></g><g transform="translate(35.781 60.758)"><path d="M321.133,223.7a8.352,8.352,0,0,0,15.624,3.841Z" transform="translate(-321.133 -223.698)" fill="#972a45"/><path d="M322.024,226.967A8.362,8.362,0,0,0,332.738,230a6.71,6.71,0,0,0-4.9-3.957A6.943,6.943,0,0,0,322.024,226.967Z" transform="translate(-320.73 -222.75)" fill="#dc3c5e"/></g><path d="M368.022,216.967c-.219,1.285-.489,2.6-.807,3.966a96.441,96.441,0,0,1-3.07,10.387,2.162,2.162,0,0,1-.09.229c-4.077-6.579-1.107-22.118-1.107-22.118-12.5-1.256-20.621-11.094-20.621-11.094-8.872,4.267-22.258,2.812-22.258,2.812-2.6,13.357-8.342,19.854-11.252,22.4a1.073,1.073,0,0,1-1.775-.816l-.029-4.386-5.5-3.06,3-11.96,3.612-11.26,15.964-10.2,24.709,1.4,8.412,7.565,9.35,11.123Z" transform="translate(-294.225 -181.862)" fill="#33324f"/><g transform="translate(0 33.352)"><path d="M312.969,208.973a7.582,7.582,0,0,0-2.016-2,10.4,10.4,0,0,0-7.167-2.074,6.318,6.318,0,0,0-1.744.484,7.278,7.278,0,0,0-2.677,1.92,10.348,10.348,0,0,0-1.59,2.393,11.92,11.92,0,0,0-1.085,7.5,13.375,13.375,0,0,0,4.833,7.768,8.387,8.387,0,0,0,2.511,1.438c2.864,1.062,6.082.542,7.874-1.661a1.608,1.608,0,0,0,.518-.532,1.7,1.7,0,0,0,.247-.507c.035-.116.071-.222.106-.341a.036.036,0,0,1,.012-.023c.237-.755.484-1.567.707-2.417a24.661,24.661,0,0,0,.944-5.87A9.981,9.981,0,0,0,312.969,208.973Z" transform="translate(-296.496 -204.827)" fill="#e8776e"/><path d="M307.481,220.305l-1.323-.406a21.269,21.269,0,0,0,.719-3.795c.163-1.785.094-4.17-1.156-5.4-1.062-1.046-2.909-1.153-5.491-.319l-.425-1.317c3.112-1.005,5.43-.786,6.888.651,1.316,1.3,1.841,3.5,1.56,6.537A22.292,22.292,0,0,1,307.481,220.305Z" transform="translate(-294.903 -202.877)" fill="#924541"/><path d="M4.5,2.8-.286.63.286-.63,5.074,1.541Z" transform="translate(7.902 10.775)" fill="#924541"/></g><g transform="translate(23.344 13.941)"><path d="M316.192,191.48l-3.151.78a.622.622,0,0,0-.434.812l2.768,7.752a.619.619,0,0,0,.68.4l.909-.142a.62.62,0,0,0,.523-.652l-.526-8.391A.619.619,0,0,0,316.192,191.48Z" transform="translate(-312.57 -191.461)" fill="#fff"/><path d="M348.687,198.69l-2.817-1.614a.621.621,0,0,0-.874.286l-3.358,7.516a.621.621,0,0,0,.214.762l.755.526a.62.62,0,0,0,.828-.109l5.418-6.429A.62.62,0,0,0,348.687,198.69Z" transform="translate(-299.447 -188.958)" fill="#fff"/></g></g><path transform="translate(-210.639 -120.983)" fill="#ec9e05"/><g transform="translate(133.165 128.99)"><path transform="translate(-343.804 -249.973)" fill="#ec9e05"/><path transform="translate(-345.439 -265.381)" fill="#ec9e05"/><path transform="translate(-344.841 -263.362)" fill="#ec9e05"/></g><g transform="translate(95.073 106.557)"><path d="M328.64,251.051a.783.783,0,0,0-.986-.64.758.758,0,0,0-1.063.122c-3.731,4.47-6.676,10-7.292,15.881-.369,3.5.311,8.46,4.058,9.993,3.414,1.4,5.991-2.155,6.907-5.032C332.241,265.159,329.582,257.247,328.64,251.051Zm-6.4,22.412c-2.617-2.793-1.346-8.278-.32-11.472a30.761,30.761,0,0,1,5.311-9.669c.578,3.718,1.207,7.436,1.688,11.165a21.541,21.541,0,0,1,.251,5.362C328.868,271.264,326.582,278.1,322.235,273.463Z" transform="translate(-319.21 -249.793)" fill="#fff"/><path d="M331.473,270.749c1.918,2.331,5.631,4.671,8.281,2.1,2.909-2.817,1.7-7.671.054-10.785-2.756-5.227-7.548-9.27-12.673-12.034a.761.761,0,0,0-1.034.282.782.782,0,0,0-.675.963C326.853,257.381,327.325,265.714,331.473,270.749Zm.078-2.754a21.594,21.594,0,0,1-1.759-5.068c-.94-3.642-1.738-7.328-2.584-10.994a30.755,30.755,0,0,1,8.525,7c2.141,2.584,5.359,7.2,3.968,10.767C337.389,275.625,332.726,270.128,331.551,268Z" transform="translate(-316.41 -249.935)" fill="#fff"/><path d="M328.635,258.235c-.065-1.02-1.66-1.025-1.595,0a249.521,249.521,0,0,1-.688,40.48c-.1,1.021,1.5,1.014,1.595,0A249.688,249.688,0,0,0,328.635,258.235Z" transform="translate(-315.982 -246.527)" fill="#fff"/><path d="M326.606,259.367c-.285-.98,1.211-1.529,1.5-.542a249.731,249.731,0,0,0,14.429,37.826c.441.927-1.06,1.462-1.5.543A249.709,249.709,0,0,1,326.606,259.367Z" transform="translate(-315.881 -246.149)" fill="#fff"/></g></g></g><g transform="translate(1368.521 632.402)"><rect width="5.415" height="11.605" transform="translate(13.867)" fill="#fff"/><rect width="5.415" height="11.605" transform="translate(13.867 20.774)" fill="#fff"/><rect width="5.415" height="11.605" transform="translate(21.963 18.719) rotate(-90)" fill="#fff"/><rect width="5.415" height="11.605" transform="translate(0 18.719) rotate(-90)" fill="#fff"/></g><g transform="translate(1048 542.817)"><ellipse cx="328.657" cy="35.323" rx="328.657" ry="35.323" transform="translate(0 111.14)" fill="#c8eff5"/><g transform="translate(31.68 33.039)"><g transform="translate(12.675 83.32)"><path d="M45.985,358.311v2.662a6.313,6.313,0,0,0,5.976,6.3l135.4,7.241a26.032,26.032,0,0,0,10.689-1.68l47.878-18.315a6.311,6.311,0,0,0,4.058-5.9v-7.044Z" transform="translate(-45.985 -336.705)" fill="#e2e4e4"/><g transform="translate(0)"><path d="M192.884,364.823l57.1-21.721L86.849,338.224,45.985,359.83Z" transform="translate(-45.985 -338.224)" fill="#cdcdcd"/><g transform="translate(140.427 11.46)"><path d="M178.03,347.259l-8.081,3.015-1.326.5-8.092,3.014-1.326.492h-.011l-10.6,3.966-2.117-4.351-.171-.352-.1-.193-.15-.31-3.378-6.927,20.289.652h.011l1.465.054h.011Z" transform="translate(-142.679 -346.115)" fill="#3f3e58"/><g transform="translate(3.164 0.652)"><g transform="translate(0.545 2.79)"><path d="M168.793,349.2l-1.326.5-13.715-.428-1.475-.043-7.045-.214.021-.534,8.349.257,1.486.043Z" transform="translate(-145.233 -348.485)" fill="#cdcdcd"/></g><g transform="translate(0.086 6.574)"><path d="M159.519,351.54l-1.326.492h-.011l-12.721-.385-.171-.352-.267.1-.107-.3.278.011.556.021Z" transform="translate(-144.917 -351.091)" fill="#cdcdcd"/></g><path d="M163.458,346.618l-8.188,3.036h-.011l-1.326.492h-.011l-8.146,3.025-.46.171-.267.1-.107-.3-.086-.225.214-.075,7.376-2.737,1.325-.492,8.21-3.047h.011Z" transform="translate(-144.857 -346.564)" fill="#cdcdcd"/></g></g></g></g><path d="M196.806,391.553l-146.9-4.993L37.431,297.575c-1.339-9.55,5.215-17.033,14.638-16.712L164.844,284.7c9.424.319,18.148,8.322,19.487,17.87Z" transform="translate(-37.257 -280.853)" fill="#e2e4e4"/><circle cx="10.567" cy="10.567" r="10.567" transform="translate(63.787 55.35)" fill="#f9872f"/></g><g transform="translate(350.335)"><g transform="translate(127.624)"><path d="M517.1,374.152H344.55L358.8,258.1H531.35Z" transform="translate(-344.55 -258.104)" fill="#00b0d1"/><path d="M522.087,374.152H349.536L363.785,258.1H536.336Z" transform="translate(-342.295 -258.104)" fill="#1d3877"/><g transform="translate(72.729 70.116)"><path d="M394.628,359.67l35.442-9.518,3.756,10.695Z" transform="translate(-394.628 -286.586)" fill="#1d3877"/><path d="M402.1,306.383h28l18.088,59.942a14.718,14.718,0,0,1-14.092,18.97H423.886Z" transform="translate(-391.25 -306.383)" fill="#00b0d1"/><path d="M405.531,306.383h28l19.382,64.234a11.388,11.388,0,0,1-10.9,14.678h-14.7Z" transform="translate(-389.697 -306.383)" fill="#006891"/><rect width="39.197" height="5.857" transform="translate(0 73.055)" fill="#006891"/></g><circle cx="12.145" cy="12.145" r="12.145" transform="translate(86.023 54.48) rotate(-76.669)" fill="#00b0d1"/></g><g transform="translate(0 115.135)"><g transform="translate(66.732 7.967)"><g transform="translate(3.5)"><rect width="16.107" height="6.406" fill="#00b0d1"/><rect width="16.107" height="6.406" transform="translate(21.993)" fill="#00b0d1"/><rect width="16.107" height="6.406" transform="translate(43.985)" fill="#00b0d1"/><rect width="16.107" height="6.406" transform="translate(65.978)" fill="#00b0d1"/><rect width="16.107" height="6.406" transform="translate(87.97)" fill="#00b0d1"/><rect width="16.107" height="6.406" transform="translate(109.963)" fill="#00b0d1"/><rect width="16.107" height="6.406" transform="translate(131.956)" fill="#00b0d1"/></g><rect width="154.771" height="8.799" transform="translate(0 4.163)" fill="#006891"/></g><path d="M314.315,358.24H258.589a1.916,1.916,0,0,1-1.765-2.664c3.753-8.972,19.063-35.642,58.769-.68A1.915,1.915,0,0,1,314.315,358.24Z" transform="translate(-256.672 -337.382)" fill="#1d3877"/><path d="M19.06,14.407-.569.822.569-.822,20.2,12.762Z" transform="translate(39.291 3.931)" fill="#00b0d1"/></g></g></g><g transform="translate(1106.159 251)"><g transform="translate(304.063 19.076)"><rect width="5.415" height="11.605" transform="translate(13.867)" fill="#fff"/><rect width="5.415" height="11.605" transform="translate(13.867 20.774)" fill="#fff"/><rect width="5.416" height="11.605" transform="translate(21.963 18.719) rotate(-90)" fill="#fff"/><rect width="5.416" height="11.605" transform="translate(0 18.719) rotate(-90)" fill="#fff"/></g><g transform="translate(99.25)"><rect width="5.415" height="11.605" transform="translate(13.867)" fill="#fff"/><rect width="5.415" height="11.605" transform="translate(13.867 20.774)" fill="#fff"/><rect width="5.415" height="11.605" transform="translate(21.963 18.719) rotate(-90)" fill="#fff"/><rect width="5.415" height="11.605" transform="translate(0 18.719) rotate(-90)" fill="#fff"/></g><g transform="translate(463.131 199.929)"><rect width="5.416" height="11.605" transform="translate(13.867)" fill="#fff"/><rect width="5.416" height="11.605" transform="translate(13.867 20.774)" fill="#fff"/><rect width="5.415" height="11.605" transform="translate(21.963 18.719) rotate(-90)" fill="#fff"/><rect width="5.415" height="11.605" transform="translate(0 18.719) rotate(-90)" fill="#fff"/></g><g transform="translate(306.632 529.817)"><rect width="5.416" height="11.605" transform="translate(13.867)" fill="#fff"/><rect width="5.416" height="11.605" transform="translate(13.867 20.774)" fill="#fff"/><rect width="5.415" height="11.605" transform="translate(21.963 18.719) rotate(-90)" fill="#fff"/><rect width="5.415" height="11.605" transform="translate(0 18.719) rotate(-90)" fill="#fff"/></g><g transform="translate(580.274 490.084)"><rect width="5.416" height="11.605" transform="translate(13.867)" fill="#fff"/><rect width="5.416" height="11.605" transform="translate(13.867 20.775)" fill="#fff"/><rect width="5.415" height="11.605" transform="translate(21.963 18.719) rotate(-90)" fill="#fff"/><rect width="5.415" height="11.605" transform="translate(0 18.719) rotate(-90)" fill="#fff"/></g><g transform="translate(-26 546.007)"><rect width="5.415" height="11.605" transform="translate(13.867)" fill="#fff"/><rect width="5.415" height="11.605" transform="translate(13.867 20.775)" fill="#fff"/><rect width="5.416" height="11.605" transform="translate(21.963 18.719) rotate(-90)" fill="#fff"/><rect width="5.416" height="11.605" transform="translate(0 18.719) rotate(-90)" fill="#fff"/></g><g transform="translate(79.776 246.631)"><rect width="5.416" height="11.605" transform="translate(13.867)" fill="#fff"/><rect width="5.416" height="11.605" transform="translate(13.867 20.774)" fill="#fff"/><rect width="5.415" height="11.605" transform="translate(21.963 18.719) rotate(-90)" fill="#fff"/><rect width="5.415" height="11.605" transform="translate(0 18.719) rotate(-90)" fill="#fff"/></g></g><g transform="translate(1093.515 387.937)"><g transform="translate(0 29.943)"><rect width="86.541" height="86.541" rx="6.652" fill="#f9872f"/><g transform="translate(12.068 24.549)"><path d="M75.366,201.7,63.32,205.837l12.045,4.133v6.758l-20.273-7.353V202.3l20.273-7.354Z" transform="translate(-55.093 -186.281)" fill="#fff"/><path d="M82.579,188.979h7.95L77.411,226.422H69.463Z" transform="translate(-48.594 -188.979)" fill="#fff"/><path d="M104.377,202.3v7.076L84.1,216.728V209.97l12.044-4.133L84.1,201.7v-6.758Z" transform="translate(-41.971 -186.281)" fill="#fff"/></g></g><g transform="translate(525.608 37.434)"><rect width="71.559" height="71.559" rx="5.5" fill="#1d3877"/><g transform="translate(9.121 10.491)"><path d="M442.475,193.088a6.939,6.939,0,1,1-7-6.878A6.941,6.941,0,0,1,442.475,193.088Z" transform="translate(-408.82 -146.231)" fill="#fff"/><path d="M461.571,172.737a32.779,32.779,0,0,0-39.834.35c-1.824,1.413-4.379,1.672-5.891.256h0c-1.507-1.406-1.035-4.345,1.288-6.158a40.262,40.262,0,0,1,48.932-.43c2.356,1.772,2.88,4.7,1.4,6.134h0C465.979,174.331,463.419,174.118,461.571,172.737Z" transform="translate(-414.979 -158.682)" fill="#fff"/><path d="M452.833,179.535a23.359,23.359,0,0,0-26.4.232c-1.868,1.287-4.421,1.557-5.947.155h0c-1.522-1.387-.931-4.48,1.66-6.291a30.854,30.854,0,0,1,34.864-.306c2.621,1.766,3.268,4.846,1.77,6.261h0C457.28,181.012,454.723,180.789,452.833,179.535Z" transform="translate(-412.862 -154.431)" fill="#fff"/><path d="M443.532,186.426a13.609,13.609,0,0,0-12.349.107c-1.958.976-4.514,1.274-6.072-.1h0c-1.563-1.342-.667-4.83,2.611-6.54a21.113,21.113,0,0,1,19.154-.168c3.307,1.654,4.265,5.125,2.726,6.493h0C448.067,187.617,445.505,187.366,443.532,186.426Z" transform="translate(-410.735 -150.163)" fill="#fff"/></g></g></g><g transform="translate(1421.602 283.075)"><rect width="225.467" height="81.907" rx="8.399" fill="#1d3877"/><path d="M272.693,161.077v51.228l25.728-33.95Z" transform="translate(-272.693 -98.651)" fill="#1d3877"/><text transform="translate(27.894 52.683)" fill="#fff" font-size="44" font-family="Montserrat-ExtraBold, Montserrat" font-weight="800"><tspan x="0" y="0">python</tspan></text></g><g transform="translate(1235.342 762.3)"><g transform="translate(140.063 48.604) rotate(180)"><rect width="140.064" height="50.882" rx="8.399" fill="#1d3877"/><path d="M301.118,385.669v31.824L285.135,396.4Z" transform="translate(-161.054 -346.889)" fill="#1d3877"/></g><text transform="translate(13.601 33.016)" fill="#fff" font-size="28" font-family="Montserrat-ExtraBold, Montserrat" font-weight="800"><tspan x="0" y="0">&lt;code&gt;</tspan></text></g></g></svg>